<svg width="131" height="38" viewBox="0 0 131 38" fill="none" xmlns="http://www.w3.org/2000/svg">
<path d="M129.5 3H129.541C130.351 2.97973 131 2.31081 131 1.5C131 0.668919 130.331 0 129.5 0C128.669 0 128 0.668919 128 1.5C128 2.31081 128.669 3 129.5 3Z" fill="black"/>
<path d="M111.5 16C110.669 16 110 16.6674 110 17.4966V23.5034C110 24.3326 110.669 25 111.5 25H111.541C112.351 24.9798 113 24.3124 113 23.5034V17.4966C113 16.6674 112.331 16 111.5 16Z" fill="black"/>
<path d="M123.5 13C122.669 13 122 13.6671 122 14.496V26.504C122 27.3329 122.669 28 123.5 28H123.54C124.351 27.9798 125 27.3127 125 26.504V14.496C125.02 13.6671 124.331 13 123.5 13Z" fill="black"/>
<path d="M123.5 6C122.669 6 122 6.66892 122 7.5C122 8.33108 122.669 9 123.5 9H123.54C124.351 8.97973 125 8.31081 125 7.5C125.02 6.66892 124.331 6 123.5 6Z" fill="black"/>
<path d="M129.5 6C128.669 6 128 6.66667 128 7.49495V22.5051C128 23.3333 128.669 24 129.5 24H129.541C130.351 23.9798 131 23.3131 131 22.5051V7.49495C131 6.66667 130.331 6 129.5 6Z" fill="black"/>
<path d="M117.5 9C116.669 9 116 9.66667 116 10.4949V19.5051C116 20.3333 116.669 21 117.5 21H117.54C118.351 20.9798 119 20.3131 119 19.5051V10.4949C119.02 9.66667 118.351 9 117.5 9Z" fill="black"/>
<path d="M111.5 9C110.669 9 110 9.66892 110 10.5C110 11.3311 110.669 12 111.5 12H111.541C112.351 11.9797 113 11.3108 113 10.5C113 9.66892 112.331 9 111.5 9Z" fill="black"/>
<path d="M117.5 3C116.669 3 116 3.66892 116 4.5C116 5.33108 116.669 6 117.5 6H117.54C118.351 5.97973 119 5.31081 119 4.5C119.02 3.66892 118.351 3 117.5 3Z" fill="black"/>
<path fill-rule="evenodd" clip-rule="evenodd" d="M22.7049 20C25.1443 20 26.2262 21.8255 26.2262 21.8255V20.3337H29V32.1309C29 36.1941 25.9902 38 22.7049 38C19.4787 38 17.3148 35.9389 17.1574 35.7819L17.1377 35.7623L18.8098 33.4853C18.8098 33.4853 20.4426 35.2127 22.6852 35.2127C24.9672 35.2127 26.0098 33.9367 26.0098 32.1897V30.7764C25.6164 31.2672 24.5541 32.2879 22.7049 32.2879C19.6754 32.2879 17 29.7361 17 26.1439C17 22.5518 19.6754 20 22.7049 20ZM23.1967 29.5398C25.1246 29.5398 25.9902 27.9106 25.9902 27.9106V24.4166C25.9902 24.4166 25.1443 22.7873 23.1967 22.7873C21.1902 22.7873 19.9902 24.2399 19.9902 26.1636C19.9902 28.0872 21.1902 29.5398 23.1967 29.5398Z" fill="black"/>
<path fill-rule="evenodd" clip-rule="evenodd" d="M6.53413 15H9.46587L16 32H13.0874L11.5545 27.9671H4.44551L2.91257 32H0L6.53413 15ZM8.00958 18.647L5.48024 25.2849H10.5389L8.00958 18.647Z" fill="black"/>
<path fill-rule="evenodd" clip-rule="evenodd" d="M66 15H72.0814C75.6203 15 78 17.3348 78 20.4415C78 23.5482 75.6203 25.8831 72.0814 25.8831H69.0712V32H66V15ZM69.0712 23.1044H71.6949C73.7898 23.1044 74.8881 22.0431 74.8881 20.4222C74.8881 18.8207 73.7898 17.7594 71.6949 17.7594H69.0712V23.1044Z" fill="black"/>
<path fill-rule="evenodd" clip-rule="evenodd" d="M82.7237 20C85.1711 20 86.2566 21.7827 86.2566 21.7827V20.2875H89V31.7125H86.2566V30.2173C86.2566 30.2173 85.25 32 82.7237 32C79.6842 32 77 29.508 77 26C77 22.492 79.6842 20 82.7237 20ZM83.2368 29.3163C85.1513 29.3163 86.0197 27.7252 86.0197 27.7252V24.3131C86.0197 24.3131 85.1513 22.722 83.2368 22.722C81.2434 22.722 80 24.1406 80 26.0192C80 27.8978 81.2237 29.3163 83.2368 29.3163Z" fill="black"/>
<path d="M97.5102 28.7303L93.4082 20H90L95.9184 32.1865L95.4286 33.4251C94.8367 34.8835 94.4082 35.1831 93.3469 35.1831C92.551 35.1831 91.7347 34.404 91.7347 34.404L90.3061 36.7414C90.3061 36.7414 91.7143 38 93.551 38C95.3469 38 97.0612 37.2009 98.102 34.5838L104 20H100.694L97.5102 28.7303Z" fill="black"/>
<path fill-rule="evenodd" clip-rule="evenodd" d="M56.7143 20C59.1576 20 60.2414 21.7827 60.2414 21.7827H60.2611V20.3067H63V31.7316H60.2611V30.2364C60.2611 30.2364 60.2414 30.2556 60.202 30.3131L60.1823 30.3323C59.9064 30.7157 58.8621 32 56.7143 32C53.6798 32 51 29.508 51 26C51 22.492 53.6798 20 56.7143 20ZM57.2266 29.3163C59.0985 29.3163 59.9655 27.8019 60.0049 27.7252H59.9852V24.3131C59.9655 24.2364 59.0985 22.722 57.2266 22.722C55.2365 22.722 53.9951 24.1406 53.9951 26.0192C53.9951 27.8978 55.2167 29.3163 57.2266 29.3163Z" fill="black"/>
<path d="M49.9658 20C47.8142 20 46.7971 22 46.7971 22V20.2941H44V32H46.9535V24.3529C46.9535 24.3529 47.7555 22.7647 49.555 22.7647C50.4156 22.7647 50.9633 23.0392 50.9633 23.0392L52 20.3725C51.9804 20.3725 51.022 20 49.9658 20Z" fill="black"/>
<path fill-rule="evenodd" clip-rule="evenodd" d="M30 26C30 22.6262 32.8821 20 36.5 20C40.1179 20 43 22.6262 43 26C43 29.3546 40.1179 32 36.5 32C32.8821 32 30 29.3546 30 26ZM33.1478 26.0192C33.1478 27.8019 34.4151 29.3163 36.5 29.3163C38.5849 29.3163 39.8522 27.8019 39.8522 26.0192C39.8522 24.2364 38.5849 22.722 36.5 22.722C34.4355 22.722 33.1478 24.2364 33.1478 26.0192Z" fill="black"/>
</svg>
