<svg
	class="ca-header-logo"
	fill="none"
	height="30"
	viewBox="0 0 164 30"
	width="164"
	xmlns="http://www.w3.org/2000/svg"
>
	<g clip-path="url(#clip0_209_9592)">
		<path
			d="M27.6841 14.5574L25.0793 7.95839L21.6809 15.2459C20.5339 17.5297 16.7761 18.2042 14.147 18.5717L14.6235 17.5964L22.2281 3.23937H28.1587L32.3991 11.9444L34.269 16.0758L38.1056 24.3548H35.4603H33.3966C32.5304 24.3548 31.6823 24.3023 31.3229 23.3876L30.5919 21.6167L29.3662 18.6242L27.6841 14.5574Z"
			fill="#006A4E"
		></path>
		<path
			d="M39.1516 26.7376H0V30.1037H39.1516V26.7376Z"
			fill="#006A4E"
		></path>
		<path
			d="M42.0371 1.00202L40.4641 1.838L34.8949 4.76391C34.8949 4.76391 32.9807 5.7998 31.755 6.05422V6.07442L31.7429 6.06432C31.988 6.86025 32.3269 7.62419 32.7525 8.34003C32.8473 8.49647 32.9808 8.62582 33.1402 8.71562C33.3499 8.84299 33.5895 8.91266 33.8348 8.91754C34.0866 8.92524 34.3363 8.87043 34.5618 8.75802L42.033 4.73968V1L42.0371 1.00202Z"
			fill="#ED1B2F"
		></path>
		<path
			d="M32.4355 11.9747L27.7144 14.5876C21.806 17.8185 14.1046 20.9362 7.44099 20.3789C4.62613 20.1548 2.92995 19.0845 3.09351 17.2854C3.27726 15.2419 5.05018 13.0873 8.16187 10.9267C9.87996 9.7148 11.7479 8.73063 13.7189 7.99878C14.995 7.53159 16.3352 7.26326 17.6928 7.20319C17.9739 7.19522 18.2547 7.22717 18.5268 7.29809C18.5268 7.25771 18.5146 7.22338 18.5066 7.18501C17.9008 3.36052 16.9093 2.84359 15.3383 2.89407C10.9262 3.03744 5.38335 6.08855 2.44734 9.61419C0.868276 11.5083 0.0646078 13.782 0.0242224 15.4054C-0.0343363 17.8871 0.955104 21.2613 3.98198 22.9878C7.34608 24.9041 12.1661 24.7789 16.5438 23.7955C21.2447 22.7313 25.3519 20.702 29.3904 18.6565L34.2932 16.1122L42.0472 11.6698L42.0775 6.82356L32.4355 11.9747Z"
			fill="#009597"
		></path>
		<path
			d="M65.3697 26.053C64.2813 27.1031 63.312 27.5311 62.0237 27.5311C60.0873 27.5311 58.8373 26.2812 58.8373 24.3447C58.8373 21.3441 61.2322 18.713 63.9622 18.713C65.3515 18.713 66.2198 19.2239 66.9568 20.4778L67.288 21.0392L69.5455 19.6459L69.2628 19.1148C68.233 17.2087 66.3955 16.1607 64.0874 16.1607C63.0226 16.1695 61.971 16.3977 60.9983 16.8309C60.0255 17.2641 59.1524 17.8931 58.4335 18.6787C56.9648 20.2226 56.1339 22.2645 56.1073 24.3952C56.1073 27.7008 58.5668 30.1017 61.9531 30.1017C64.0046 30.1017 65.6685 29.3929 67.191 27.8704L67.6474 27.4241L65.8179 25.627L65.3697 26.053Z"
			fill="#009597"
		></path>
		<path
			d="M116.635 24.3387H123.199L123.904 21.8025H117.311L118.087 18.9048H125.453L126.158 16.3686H116.076L112.447 29.8755H122.612L123.282 27.3393H115.827L116.635 24.3387Z"
			fill="#009597"
		></path>
		<path
			d="M132.375 16.3686H127.482L123.848 29.8755H126.551L127.826 25.1242H130.263L132.674 29.8755H135.703L133.1 24.7991C134.673 24.3952 135.824 23.5613 136.389 22.4264C136.964 21.5586 137.185 20.5039 137.007 19.4783C136.872 18.5393 136.149 16.3686 132.375 16.3686ZM129.51 18.923H132.304C133.673 18.923 134.4 19.3269 134.463 20.1346V20.1548C134.49 20.3778 134.472 20.604 134.409 20.8198C134.347 21.0356 134.241 21.2366 134.099 21.4107L134.063 21.4653C133.629 22.1801 132.48 22.6082 130.994 22.6082H128.51L129.51 18.923Z"
			fill="#009597"
		></path>
		<path
			d="M146.728 26.053C145.64 27.1031 144.67 27.5311 143.382 27.5311C141.446 27.5311 140.196 26.2812 140.196 24.3447C140.196 21.3441 142.59 18.713 145.321 18.713C146.71 18.713 147.578 19.2239 148.315 20.4778L148.646 21.0392L150.904 19.6459L150.617 19.1148C149.587 17.2087 147.75 16.1607 145.442 16.1607C144.377 16.1693 143.325 16.3973 142.352 16.8306C141.38 17.2638 140.507 17.8929 139.788 18.6787C138.32 20.2232 137.491 22.265 137.466 24.3952C137.466 27.7008 139.925 30.1017 143.321 30.1017C145.373 30.1017 147.037 29.3929 148.559 27.8704L149.016 27.414L147.186 25.6169L146.728 26.053Z"
			fill="#009597"
		></path>
		<path
			d="M162.157 18.9048L162.862 16.3686H152.78L149.151 29.8755H159.318L159.986 27.3393H152.531L153.341 24.3387H159.904L160.608 21.8025H154.015L154.791 18.9048H162.157Z"
			fill="#009597"
		></path>
		<path
			d="M85.7118 16.3686L82.0831 29.8755H84.7708L88.4034 16.3686H85.7118Z"
			fill="#009597"
		></path>
		<path
			d="M96.0908 16.3686L90.3561 22.5072L89.2455 19.6984L88.1127 23.9146L89.1788 26.5215H89.9522L94.6086 21.6046L92.3915 29.8755H95.1114L98.7401 16.3686H96.0908Z"
			fill="#009597"
		></path>
		<path
			d="M100.893 16.3686L97.266 29.8755H99.9516L103.586 16.3686H100.893Z"
			fill="#009597"
		></path>
		<path
			d="M111.274 16.3686L105.537 22.5072L104.426 19.6984L103.294 23.9146L104.36 26.5215H105.135L109.79 21.6046L107.572 29.8755H110.294L113.921 16.3686H111.274Z"
			fill="#009597"
		></path>
		<path
			d="M82.3517 22.1256C82.3517 18.7433 79.7711 16.193 76.3484 16.193C72.1383 16.193 68.5823 19.8539 68.5823 24.1872C68.5823 27.3555 70.8358 29.7968 73.9233 30.1037L74.5977 27.5796C72.6289 27.5453 71.3104 26.1782 71.3104 24.1468C71.3104 21.5905 73.3438 18.7433 76.2616 18.7433C78.2708 18.7433 79.6217 20.1204 79.6217 22.176C79.6217 24.1832 78.3697 26.368 76.4191 27.2242L75.6599 30.0512C79.3834 29.4939 82.3517 26.0914 82.3517 22.1256Z"
			fill="#009597"
		></path>
		<path
			d="M99.6064 14.7169L102.023 5.71499L106.549 14.7169H108.534L112.16 1.21H109.493L107.128 9.98573L102.726 1.21H100.566L96.9369 14.7169H99.6064Z"
			fill="#9CBD39"
		></path>
		<path
			d="M70.6743 1.21L67.0457 14.7169H69.7333L73.366 1.21H70.6743Z"
			fill="#9CBD39"
		></path>
		<path
			d="M81.0533 1.21L75.3186 7.34857L74.208 4.53775L73.0752 8.756L74.1414 11.3629H74.9168L79.5712 6.44596L77.354 14.7169H80.074L83.7026 1.21H81.0533Z"
			fill="#9CBD39"
		></path>
		<path
			d="M97.2034 6.9326C97.2034 3.55033 94.6248 1 91.2021 1C86.992 1 83.436 4.66093 83.436 8.99428C83.436 12.1645 85.6895 14.6038 88.777 14.9107L89.4555 12.3866C87.4867 12.3523 86.1681 10.9853 86.1681 8.95389C86.1681 6.3975 88.2015 3.54831 91.1193 3.54831C93.1285 3.54831 94.4794 4.92747 94.4794 6.98107C94.4794 8.98822 93.2254 11.1751 91.2768 12.0292L90.5176 14.8663C94.2371 14.2989 97.2034 10.9005 97.2034 6.9326Z"
			fill="#9CBD39"
		></path>
		<path
			d="M49.3771 8.9236H48.8157V25.7542H49.3771V8.9236Z"
			fill="#6F6E6E"
		></path>
	</g>
	<defs>
		<clipPath id="clip0_209_9592">
			<rect fill="white" height="30" width="164"></rect>
		</clipPath>
	</defs>
</svg>
