<svg width="120" height="40" viewBox="0 0 120 40" fill="none" xmlns="http://www.w3.org/2000/svg">
<g clip-path="url(#clip0_2448_40675)">
<path d="M12.7966 11.2852V31.9925C11.4372 33.2002 9.97516 34.4618 8.66569 34.4618C6.95229 34.4618 6.34792 33.2511 6.34792 31.4379V11.2852H0V32.143C0 37.2313 2.01558 39.1961 5.89515 39.1961C8.5151 39.1961 10.6803 37.5844 12.999 35.5698V38.6924H19.1455V11.2852H12.7976H12.7966Z" fill="#004932"/>
<path fill-rule="evenodd" clip-rule="evenodd" d="M37.9906 32.4952C36.732 33.8535 35.5731 34.4599 34.1619 34.4599C32.4475 34.4599 31.0373 33.3499 31.0373 27.9085V22.0642C31.0373 16.6239 32.4475 15.5159 34.1619 15.5159C35.5721 15.5159 36.732 16.1213 37.9906 17.4806V32.4952ZM44.3385 38.6905V2.31641H37.9906V13.8015C34.9688 11.5865 33.3561 10.7786 31.6427 10.7786C26.705 10.7786 24.6914 14.6083 24.6914 21.6613V28.3114C24.6914 35.3645 26.705 39.1942 31.6427 39.1942C34.4631 39.1942 37.2855 37.0789 38.3945 35.3655H38.4953V38.6905H44.3395H44.3385Z" fill="#004932"/>
<path fill-rule="evenodd" clip-rule="evenodd" d="M51.1953 11.2835V38.6907H57.5422V11.2835H51.1953ZM57.5422 6.54824V0.804688H51.1953V6.54824H57.5422Z" fill="#004932"/>
<path d="M64.3829 38.6893H70.7298V17.983C71.4858 16.9238 73.2999 15.5146 74.6602 15.5146C75.6685 15.5146 76.3726 16.0183 76.3726 17.8324V38.6893H82.7216V17.983C83.5274 16.9238 85.4921 15.5146 86.7019 15.5146C87.7091 15.5146 88.3634 16.0183 88.3634 17.8324V38.6893H94.7123V18.0339C94.7123 13.0951 92.7456 10.7773 88.9169 10.7773C86.1463 10.7773 84.1307 12.7431 82.166 14.9113C81.41 12.391 79.6977 10.7773 77.329 10.7773C74.6592 10.7773 72.5928 12.5416 70.5263 14.4066V11.281H64.3809V38.6882L64.3829 38.6893Z" fill="#004932"/>
<path fill-rule="evenodd" clip-rule="evenodd" d="M106.499 19.2943C106.499 17.3306 108.11 15.9204 110.025 15.9204C111.839 15.9204 113.3 16.827 113.3 19.1946V21.2102C105.388 23.5768 99.3438 26.2985 99.3438 32.6474C99.3438 37.0805 101.812 39.1958 105.641 39.1958C108.814 39.1958 111.333 37.8863 113.198 36.0234C113.4 37.1314 113.502 37.9881 113.651 38.6922H120C119.798 37.9881 119.646 37.2321 119.646 36.4761V19.0959C119.646 14.208 117.077 10.7812 110.326 10.7812C105.237 10.7812 100.601 13.1997 100.149 19.2964H106.497L106.499 19.2943ZM113.3 31.9413C111.788 33.4522 110.427 34.4605 108.514 34.4605C106.801 34.4605 105.693 33.4004 105.693 31.5872C105.693 28.717 109.521 26.6007 113.301 25.2902V31.9413H113.3Z" fill="#004932"/>
</g>
<defs>
<clipPath id="clip0_2448_40675">
<rect width="120" height="38.3897" fill="white" transform="translate(0 0.804688)"/>
</clipPath>
</defs>
</svg>
